# xmcd
#
# Track frame offsets:
#	150
#	18988
#	42607
#	63913
#	85191
#	113695
#	134203
#	180033
#
# Disc length: 2653 seconds
#
# Revision: 1
# Processed by: cddbd v1.5.1PL2 Copyright (c) Steve Scherf et al.
# Submitted via: audiograbber 1.80.04
#
DISCID=630a5b08
DTITLE=Taj Mahal - Live At Fox Theatre 01/20/03  (Disk 2/2)
DYEAR=2003
DGENRE=Blues
TTITLE0=Good Morning Miss Brown
TTITLE1=Mr. So And So
TTITLE2=Autumn To May
TTITLE3=Going Up To The Country - Paint My Mailbox Blue
TTITLE4=Annie Mae
TTITLE5=Linda Lou
TTITLE6=Blues Ain't Nothin'
TTITLE7=Lovin' In My Baby's Eyes
EXTD=Tracks per disk is different from version shown at\nhttp://www.emusic.com/
EXTD=album/10813/10813976.html
EXTT0=
EXTT1=
EXTT2=
EXTT3=
EXTT4=
EXTT5=
EXTT6=
EXTT7=
PLAYORDER=
